<?xml version="1.0" standalone="no"?>
<!DOCTYPE svg PUBLIC "-//W3C//DTD SVG 20010904//EN"
 "http://www.w3.org/TR/2001/REC-SVG-20010904/DTD/svg10.dtd">
<svg version="1.0" xmlns="http://www.w3.org/2000/svg"
 width="319.000000pt" height="277.000000pt" viewBox="0 0 319.000000 277.000000"
 preserveAspectRatio="xMidYMid meet">

<g transform="translate(0.000000,277.000000) scale(0.100000,-0.100000)"
fill="#000000" stroke="none">
<path d="M1720 2644 c-198 -52 -366 -208 -420 -390 l-12 -42 -34 67 c-46 91
-130 171 -231 219 -70 32 -88 36 -180 40 -83 3 -115 0 -170 -17 -235 -71 -389
-307 -354 -543 17 -110 75 -222 153 -292 33 -31 74 -61 90 -68 38 -17 35 -24
-10 -32 -67 -10 -112 -74 -112 -159 l0 -55 -47 -7 c-71 -10 -110 -30 -133 -67
-20 -31 -21 -44 -17 -236 5 -197 6 -204 28 -229 31 -33 79 -53 129 -53 l40 0
0 -87 c1 -129 42 -204 122 -220 27 -5 28 -7 28 -74 0 -75 14 -100 66 -119 15
-6 301 -10 721 -10 622 0 699 2 729 16 47 23 63 56 57 125 l-5 56 31 6 c17 4
49 24 71 44 34 32 42 46 47 89 l5 52 47 5 c26 3 61 13 77 23 30 17 33 17 80
-3 27 -12 80 -26 118 -32 60 -9 75 -15 108 -48 35 -35 43 -38 107 -41 75 -4
122 12 142 50 16 30 17 875 0 906 -21 39 -51 52 -124 52 -80 0 -124 -19 -138
-60 -10 -26 -18 -30 -103 -50 -51 -11 -109 -30 -129 -40 -36 -20 -37 -20 -69
0 -19 11 -51 20 -74 20 -40 0 -42 1 -48 38 -7 45 -57 101 -98 109 l-29 6 38
25 c87 57 150 139 199 257 27 65 29 78 28 200 -1 107 -4 140 -23 190 -48 131
-164 266 -280 325 -130 65 -297 87 -421 54z m265 -79 c97 -26 157 -58 229
-125 53 -50 76 -81 109 -149 36 -76 42 -96 45 -171 7 -144 -37 -268 -130 -366
-46 -49 -129 -110 -112 -83 9 15 -14 28 -43 23 -12 -2 -23 -1 -23 4 0 4 -39 2
-87 -5 -106 -17 -165 -12 -269 23 -43 15 -85 27 -91 27 -7 0 -13 4 -13 9 0 5
-4 6 -10 3 -5 -3 -10 -1 -10 6 0 7 -3 9 -7 6 -3 -4 -17 0 -30 8 -13 9 -29 13
-36 8 -9 -5 -9 -3 -1 8 11 15 11 24 1 52 -4 9 -10 25 -14 35 -3 9 -5 23 -4 31
1 7 -2 10 -8 7 -5 -4 -12 -2 -16 4 -4 6 -11 8 -16 5 -5 -4 -9 1 -9 10 0 9 -4
13 -10 10 -5 -3 -10 2 -10 11 0 16 -2 16 -20 -1 -18 -17 -20 -17 -14 -2 7 19
-11 24 -20 5 -3 -7 -4 -1 -1 14 3 16 0 28 -7 30 -9 3 -12 29 -12 84 3 133 66
269 167 360 128 115 310 161 472 119z m-1049 -120 c175 -52 294 -211 294 -395
0 -62 -25 -170 -39 -170 -13 0 -78 66 -91 93 -17 33 -76 67 -118 67 -23 0 -31
5 -34 24 -4 20 0 26 20 31 39 10 79 45 98 86 48 108 -75 211 -184 155 -40 -21
-62 -54 -69 -104 -7 -50 -35 -54 -52 -7 -18 52 -64 85 -116 85 -58 0 -90 -13
-111 -45 -22 -34 -22 -103 0 -137 20 -30 72 -58 110 -58 41 0 35 -36 -6 -45
-58 -13 -87 -34 -112 -83 -14 -26 -25 -39 -26 -29 0 10 -4 16 -9 12 -5 -3 -13
0 -17 6 -4 8 -3 9 4 5 16 -10 15 5 -2 27 -9 12 -16 14 -21 8 -3 -6 -11 -11
-17 -11 -6 0 -3 10 8 21 19 22 19 22 -5 14 -19 -6 -23 -4 -18 8 4 12 2 14 -10
10 -13 -5 -15 4 -11 68 8 168 125 308 303 365 55 17 171 17 231 -1z m-65 -345
c20 -21 25 -35 22 -56 -12 -65 -70 -91 -132 -59 -84 43 -29 169 64 148 11 -3
32 -17 46 -33z m157 -146 c14 -9 22 -24 22 -42 0 -32 -7 -42 -40 -65 -36 -25
-75 -22 -99 9 -27 34 -27 33 9 83 26 36 34 40 58 35 15 -4 37 -13 50 -20z
m-188 -80 c0 -33 57 -92 105 -109 22 -8 32 -14 23 -15 -10 0 -18 -4 -18 -9 0
-15 -60 -31 -114 -31 -29 0 -70 9 -95 20 -24 11 -57 20 -75 21 -31 1 -31 1 7
11 49 13 104 68 112 111 6 29 10 33 31 29 17 -3 24 -11 24 -28z m525 -118 c20
-31 60 -77 88 -101 l52 -45 -220 1 c-210 0 -219 1 -195 17 84 57 156 149 191
247 l11 30 17 -46 c10 -25 35 -71 56 -103z m842 -260 c33 -35 35 -42 29 -84
-3 -24 -7 -214 -7 -421 -1 -207 -3 -368 -6 -358 -4 14 -8 16 -19 6 -17 -14
-19 2 -2 19 9 9 9 12 -3 12 -8 0 -21 -6 -28 -12 -10 -11 -11 -9 -5 6 7 18 6
18 -22 3 -16 -9 -42 -18 -58 -22 -36 -8 -32 -11 27 -18 30 -4 46 -3 42 3 -3 5
9 3 27 -4 42 -18 45 -29 12 -55 -26 -21 -33 -21 -473 -19 -245 1 -417 4 -381
8 39 4 51 7 30 8 -27 2 -31 5 -20 12 13 8 12 10 -5 11 -18 1 -18 2 -2 6 10 3
17 12 16 21 -2 9 5 32 15 51 14 27 15 33 4 28 -8 -3 -15 1 -15 8 0 7 41 37 91
66 157 92 283 176 300 200 9 13 16 43 16 67 0 69 -39 99 -336 265 -216 120
-261 134 -321 97 -67 -41 -68 -43 -68 -355 0 -303 4 -367 23 -371 7 -1 8 0 2
3 -5 2 -10 10 -10 16 0 6 10 1 23 -11 13 -12 30 -22 38 -23 8 0 3 -5 -11 -10
-15 -6 -32 -7 -45 -1 -11 5 -38 15 -60 22 -56 17 -164 72 -215 109 -24 17 -50
29 -57 27 -7 -3 -13 1 -13 9 0 8 -4 15 -10 15 -5 0 -10 5 -10 10 0 6 -14 24
-30 40 -16 16 -30 31 -30 33 0 2 -20 26 -45 53 -25 26 -45 52 -45 57 0 4 -4 5
-10 2 -7 -4 -10 49 -10 152 0 87 -3 189 -7 227 -4 51 -3 67 5 62 7 -4 10 -2 7
7 -3 7 4 22 16 33 19 17 41 20 198 24 97 3 456 5 799 5 l624 0 35 -39z m713
-21 c9 -11 10 -93 5 -360 -4 -190 -11 -345 -15 -345 -4 0 -30 24 -59 54 l-51
55 0 299 c0 164 3 302 7 305 13 13 100 7 113 -8z m-201 -337 c0 -144 -3 -267
-6 -274 -6 -16 -11 -12 -114 86 l-78 75 -4 152 c-2 84 0 158 4 164 6 10 150
55 187 58 10 1 13 -52 11 -261z m-304 212 c12 -10 15 -46 15 -186 0 -114 -4
-174 -10 -174 -6 0 -30 15 -54 33 -43 32 -43 33 -50 106 -8 101 -8 226 2 235
10 11 80 0 97 -14z m-1042 -92 c218 -119 321 -186 325 -215 2 -13 -7 -31 -23
-46 -35 -32 -210 -136 -362 -214 -109 -57 -124 -62 -149 -53 -16 6 -32 16 -35
22 -4 6 -8 134 -8 286 -2 245 0 276 15 293 9 11 28 19 42 19 14 0 101 -41 195
-92z m-933 -93 l0 -135 -25 0 c-14 0 -38 12 -55 28 -28 26 -30 31 -31 115 -1
48 1 90 4 93 8 8 79 33 95 34 9 0 12 -33 12 -135z m910 -459 c0 -2 -7 -7 -16
-10 -8 -3 -12 -2 -9 4 6 10 25 14 25 6z"/>
<path d="M1933 2418 c-40 -29 -59 -61 -68 -115 -4 -24 -10 -43 -15 -43 -5 0
-15 -3 -23 -6 -10 -4 -19 7 -28 37 -39 120 -197 144 -266 40 -61 -90 12 -221
123 -221 27 0 31 -3 31 -30 0 -28 -3 -30 -37 -30 -45 0 -115 -47 -132 -88 -15
-38 -13 -88 6 -117 19 -29 20 -39 4 -29 -8 4 -10 3 -5 -2 5 -5 12 -9 15 -10 4
0 33 -13 65 -28 72 -35 112 -30 167 21 37 33 66 95 54 115 -3 4 11 8 30 8 30
0 36 -4 36 -21 0 -33 29 -86 58 -105 86 -56 209 -20 248 73 44 103 -23 203
-136 203 -28 0 -40 4 -40 14 0 8 -3 21 -6 29 -4 11 6 19 33 27 75 24 133 90
133 151 0 38 -40 107 -74 129 -47 29 -131 28 -173 -2z m-38 -234 c23 -10 39
-28 49 -55 23 -56 20 -76 -13 -110 -25 -24 -38 -29 -79 -29 -44 0 -54 4 -76
31 -47 55 -25 150 39 168 42 13 43 13 80 -5z"/>
<path d="M2115 1721 c-6 -11 13 -26 22 -17 4 3 0 6 -8 6 -11 0 -11 2 1 10 9 6
10 10 3 10 -6 0 -14 -4 -18 -9z"/>
<path d="M2070 1716 c0 -2 7 -7 16 -10 8 -3 12 -2 9 4 -6 10 -25 14 -25 6z"/>
<path d="M1675 610 c3 -5 18 -10 33 -9 24 0 25 1 7 9 -28 12 -47 12 -40 0z"/>
<path d="M2150 610 c-12 -8 -12 -10 5 -11 11 -1 24 -1 28 0 5 1 6 -3 3 -8 -4
-5 -14 -10 -24 -10 -9 -1 -44 -5 -77 -10 l-60 -8 51 -2 c73 -2 113 8 125 32
10 17 9 19 -9 15 -12 -3 -22 -2 -24 3 -2 4 -10 4 -18 -1z"/>
<path d="M2088 603 c7 -3 16 -2 19 1 4 3 -2 6 -13 5 -11 0 -14 -3 -6 -6z"/>
<path d="M2088 583 c7 -3 16 -2 19 1 4 3 -2 6 -13 5 -11 0 -14 -3 -6 -6z"/>
<path d="M1663 563 c9 -2 25 -2 35 0 9 3 1 5 -18 5 -19 0 -27 -2 -17 -5z"/>
</g>
</svg>
