<?xml version="1.0" standalone="no"?>
<!DOCTYPE svg PUBLIC "-//W3C//DTD SVG 20010904//EN"
 "http://www.w3.org/TR/2001/REC-SVG-20010904/DTD/svg10.dtd">
<svg version="1.0" xmlns="http://www.w3.org/2000/svg"
 width="468.000000pt" height="298.000000pt" viewBox="0 0 468.000000 298.000000"
 preserveAspectRatio="xMidYMid meet">

<g transform="translate(0.000000,298.000000) scale(0.100000,-0.100000)"
fill="#000000" stroke="none">
<path d="M2304 2841 c-23 -10 -44 -26 -47 -35 -5 -13 -12 -14 -32 -6 -49 19
-115 -25 -115 -78 0 -23 -45 -68 -54 -53 -4 5 -35 24 -70 42 -62 31 -65 32
-112 19 -60 -17 -121 -71 -129 -114 -6 -32 -12 -37 -85 -71 -76 -35 -108 -91
-91 -163 l9 -41 -54 -31 c-78 -44 -94 -85 -68 -180 3 -13 -12 -15 -109 -12
-429 13 -811 -275 -925 -697 -35 -133 -37 -335 -4 -461 49 -189 174 -385 320
-505 93 -77 281 -169 397 -195 182 -40 398 -19 571 56 l83 35 113 -25 c297
-65 607 -96 973 -96 572 0 1109 89 1293 213 71 48 72 52 72 436 l0 340 -31 36
c-18 20 -50 46 -73 59 -95 55 -357 117 -571 134 -49 4 -89 12 -88 17 0 6 26
163 57 350 31 187 58 354 61 370 7 42 -25 89 -74 111 -34 15 -42 23 -46 53 -9
59 -37 104 -77 126 -31 16 -38 26 -38 50 0 64 -67 125 -137 125 -15 0 -44 -10
-63 -22 -24 -14 -53 -21 -92 -22 -57 -1 -57 -1 -72 36 -14 38 -92 98 -125 98
-38 0 -92 -23 -119 -50 -27 -27 -31 -28 -51 -14 -12 9 -37 14 -59 12 -29 -2
-41 2 -55 20 -10 12 -27 22 -38 22 -12 0 -23 10 -30 28 -15 41 -58 81 -98 92
-50 14 -70 12 -117 -9z m106 -56 c34 -17 50 -43 50 -79 0 -21 5 -25 37 -28 51
-4 56 -32 12 -56 -17 -9 -44 -27 -59 -39 -24 -20 -29 -21 -40 -8 -16 19 -46
19 -54 0 -3 -9 5 -21 22 -32 64 -39 67 -66 10 -85 -31 -11 -44 -21 -46 -37 -3
-21 -2 -22 20 -8 40 25 78 30 99 11 12 -11 27 -14 44 -10 28 7 33 27 10 46
-47 39 41 160 116 160 27 0 69 -37 69 -61 0 -9 8 -27 18 -39 16 -20 19 -20 31
-7 10 12 10 20 0 38 -22 43 42 119 101 119 29 0 76 -26 84 -45 3 -9 6 -30 6
-46 0 -24 4 -29 25 -29 28 0 29 -3 15 -31 -6 -10 -21 -19 -33 -19 -31 0 -51
-15 -44 -34 5 -11 14 -14 35 -10 35 7 59 -5 113 -53 49 -44 50 -68 4 -90 -40
-19 -45 -45 -13 -67 45 -32 98 -5 98 49 0 12 5 26 12 33 9 9 8 12 -4 12 -10 0
-23 17 -33 43 -9 25 -29 51 -46 62 -47 31 -53 49 -25 82 23 26 26 27 57 16 29
-11 35 -10 61 12 65 55 142 15 136 -69 -3 -39 -1 -41 27 -44 30 -4 65 -27 65
-43 0 -5 -17 -16 -37 -25 -28 -12 -45 -13 -65 -6 -19 7 -32 6 -44 -3 -21 -15
-13 -38 21 -61 25 -16 27 -16 49 5 52 49 130 9 124 -65 -2 -31 -9 -42 -30 -52
-127 -60 -759 -100 -1153 -73 -195 14 -396 38 -408 50 -4 4 -11 25 -14 46 -5
29 -2 41 11 51 24 17 3 28 -39 20 -41 -8 -54 -25 -32 -41 9 -6 19 -24 23 -39
l7 -28 -44 7 c-70 11 -152 35 -174 51 l-20 15 20 11 c20 12 95 89 95 98 0 3
-10 10 -22 15 -34 15 -36 68 -4 100 21 21 34 25 84 25 l60 0 4 56 c6 73 36
105 101 107 38 2 51 -3 76 -27 24 -23 31 -38 31 -68 0 -33 3 -38 23 -38 34 0
50 15 43 38 -9 26 24 62 57 62 40 0 87 -18 106 -41 9 -12 24 -19 32 -16 10 3
-5 23 -49 65 -70 66 -76 90 -28 107 24 8 31 6 46 -13 23 -28 26 -28 45 8 15
29 57 59 83 60 7 0 26 -7 42 -15z m1089 -697 c-36 -226 -161 -973 -169 -1014
l-11 -51 -124 -2 c-89 -2 -125 1 -125 9 0 7 7 69 16 138 8 70 13 147 9 172 -4
34 -3 41 5 30 10 -13 11 -13 7 0 -2 8 -8 15 -13 15 -5 0 -14 4 -21 8 -6 4 -14
1 -16 -5 -3 -7 -6 -3 -6 10 -1 13 -5 20 -11 17 -5 -3 -10 0 -10 7 0 7 -10 21
-23 31 -12 10 -35 29 -52 43 -16 13 -40 27 -53 30 -14 4 -21 12 -18 20 3 8 1
14 -4 14 -6 0 -10 7 -10 16 0 8 -4 13 -9 10 -5 -4 -11 0 -14 6 -2 7 -7 -7 -10
-32 -6 -47 -37 -491 -37 -524 0 -18 -7 -19 -137 -13 -75 4 -137 8 -139 10 -6
6 -27 966 -21 980 6 15 29 17 201 17 106 0 258 7 336 15 156 16 372 57 423 79
18 8 35 15 38 15 3 1 2 -23 -2 -51z m-1416 -34 c42 -4 77 -7 77 -8 0 0 7 -91
15 -201 15 -210 17 -270 8 -245 -17 44 -115 174 -181 242 l-75 77 -6 76 -7 77
46 -6 c25 -3 80 -8 123 -12z m-525 -44 c159 -44 275 -114 388 -231 142 -149
219 -305 245 -497 27 -204 -37 -440 -165 -609 -63 -84 -175 -186 -197 -180
-11 3 -16 0 -13 -8 3 -7 -2 -15 -10 -18 -10 -4 -13 -1 -10 7 7 19 -15 31 -29
17 -9 -9 -7 -11 8 -6 15 5 17 4 6 -3 -8 -6 -20 -8 -28 -5 -7 3 -21 2 -30 -3
-29 -13 -52 -15 -185 -21 -128 -5 -275 14 -305 39 -7 5 -17 7 -23 3 -5 -3 -10
-2 -10 3 0 5 -19 16 -42 25 -38 16 -43 16 -60 1 -25 -23 -110 -11 -168 24 -25
15 -58 32 -75 38 -20 7 -29 17 -27 28 2 11 -5 20 -17 23 -12 3 -18 9 -15 14 3
5 0 9 -5 9 -6 0 -11 10 -11 23 0 27 -66 101 -82 91 -7 -5 -8 -3 -3 6 4 7 3 15
-1 19 -25 17 -73 92 -92 144 -27 71 -72 141 -72 112 -1 -18 -1 -19 -11 -2 -5
9 -7 22 -4 27 3 6 -2 10 -13 10 -15 0 -19 9 -21 47 -1 26 -4 50 -6 54 -9 14
18 188 41 259 50 160 173 329 309 426 115 81 253 135 410 158 67 10 252 -4
323 -24z m2485 -735 c84 -34 126 -68 111 -91 -23 -38 -61 -56 -139 -65 -42 -4
-86 -11 -97 -15 -19 -6 -20 -2 -17 101 l4 107 38 -6 c21 -4 66 -18 100 -31z
m116 -457 c-1 -145 -7 -271 -11 -280 -8 -18 -77 -58 -98 -58 -5 0 -10 22 -10
51 l0 52 -42 -7 c-81 -13 -92 -24 -98 -91 -5 -57 -6 -60 -35 -66 -63 -14 -64
-13 -67 44 l-3 52 -52 0 c-60 -1 -106 -21 -100 -46 3 -13 -2 -15 -26 -13 -17
2 -34 10 -39 16 -5 10 -11 8 -21 -6 -11 -15 -17 -17 -35 -7 -31 16 -127 14
-142 -4 -7 -8 -11 -35 -8 -65 3 -45 1 -50 -17 -50 -12 0 -16 3 -8 8 15 9 23
152 9 153 -6 1 -24 2 -39 3 -16 1 -32 8 -38 16 -7 13 -9 12 -9 -2 0 -20 -32
-18 -75 6 -16 9 -35 16 -42 16 -7 0 -22 10 -33 22 -17 19 -24 20 -39 11 -16
-10 -20 -9 -24 8 -3 10 -10 19 -17 19 -6 0 -8 -4 -5 -10 3 -5 1 -10 -4 -10 -6
0 -11 -7 -11 -15 0 -8 5 -15 11 -15 5 0 8 -4 5 -9 -7 -11 -81 -7 -123 7 -19 6
-33 7 -33 1 0 -5 -9 -9 -20 -9 -13 0 -20 7 -20 20 0 19 -1 20 -25 4 -14 -9
-23 -19 -21 -23 2 -3 -13 -5 -35 -3 -43 4 -54 28 -16 35 14 3 7 5 -18 7 -22 1
-32 4 -22 7 11 3 16 11 13 18 -5 15 6 13 62 -12 50 -22 48 -10 -2 15 -24 12
-49 29 -56 37 -7 8 -20 15 -29 15 -28 1 -51 44 -48 94 l2 46 40 0 c78 0 85 6
85 66 l0 54 70 1 c39 1 78 2 88 3 14 1 18 -9 20 -56 2 -32 6 -59 10 -59 50
-10 228 -13 241 -5 6 4 11 34 11 67 l0 59 85 0 85 0 0 -55 0 -55 46 0 c71 0
84 11 84 74 0 62 6 66 98 66 l52 0 0 -54 c0 -84 6 -86 185 -51 81 16 131 32
163 53 18 12 22 23 22 63 l0 49 63 29 c34 16 64 30 66 30 2 1 2 -117 0 -261z
m-259 160 c0 -55 -10 -68 -51 -68 -38 0 -39 1 -39 34 0 31 3 35 38 44 53 14
52 14 52 -10z m-1460 -92 c0 -59 9 -72 60 -82 23 -5 28 -9 18 -15 -9 -5 -13
-19 -10 -41 9 -75 20 -206 21 -244 1 -41 0 -42 -39 -48 -45 -7 -65 -38 -57
-88 3 -28 3 -28 -47 -27 -28 1 -43 3 -33 6 21 5 22 17 2 37 -8 8 -15 23 -15
34 0 26 -39 51 -96 61 -25 5 -47 11 -50 14 -3 3 7 25 24 49 56 82 129 241 136
298 12 96 14 100 52 100 l34 0 0 -54z m-1892 -31 c-3 -3 -9 2 -12 12 -6 14 -5
15 5 6 7 -7 10 -15 7 -18z m122 -56 c0 -6 -4 -7 -10 -4 -5 3 -10 11 -10 16 0
6 5 7 10 4 6 -3 10 -11 10 -16z m-19 -116 c13 -16 12 -17 -3 -4 -10 7 -18 15
-18 17 0 8 8 3 21 -13z m64 -73 c3 -6 -1 -7 -9 -4 -18 7 -21 14 -7 14 6 0 13
-4 16 -10z m2467 -106 c-13 -9 -26 -13 -29 -10 -4 3 0 6 8 6 11 0 11 2 -1 10
-12 7 -8 10 15 10 l29 0 -22 -16z m-462 -4 c0 -5 7 -7 15 -4 9 4 15 0 15 -7 0
-11 3 -11 11 1 9 13 10 12 5 -2 -3 -10 -1 -18 4 -18 6 0 10 5 10 10 0 6 4 10
10 10 6 0 8 -17 5 -40 -5 -40 6 -53 22 -26 7 12 13 10 34 -8 14 -12 28 -30 32
-40 4 -10 13 -16 21 -13 8 3 20 -1 26 -9 10 -11 10 -14 -1 -15 -8 0 -5 -4 6
-9 13 -6 -9 -9 -67 -9 l-88 -1 0 60 c0 57 -1 60 -24 60 -13 0 -27 7 -30 16 -5
13 -3 14 6 7 18 -14 58 -23 58 -13 0 4 -11 11 -25 14 -14 4 -25 11 -25 17 0 6
-4 8 -9 5 -5 -3 -14 1 -21 9 -9 10 -9 15 -1 15 6 0 11 -4 11 -10z"/>
<path d="M1979 2482 c-8 -1 -23 -16 -32 -32 -9 -15 -31 -40 -47 -54 -37 -31
-37 -39 -1 -53 26 -9 32 -8 48 9 27 31 54 37 85 22 15 -8 31 -14 35 -14 14 1
65 79 58 90 -9 15 -54 12 -72 -5 -12 -13 -18 -13 -30 -3 -8 7 -18 19 -22 28
-3 9 -13 14 -22 12z"/>
<path d="M1855 2441 c-3 -5 -1 -12 5 -16 12 -7 30 2 30 16 0 12 -27 12 -35 0z"/>
<path d="M2646 2361 c-28 -17 -57 -44 -67 -63 -27 -50 -25 -58 13 -47 43 12
88 12 88 -1 0 -5 12 -17 26 -26 24 -16 26 -16 42 0 14 13 14 20 4 36 -15 24
-16 60 -2 60 17 0 11 36 -8 53 -25 23 -39 21 -96 -12z"/>
<path d="M2111 2251 c-16 -12 -22 -24 -18 -35 9 -24 26 -19 38 11 14 37 8 45
-20 24z"/>
<path d="M1193 1891 c-116 -40 -169 -116 -160 -228 6 -76 37 -130 104 -176 33
-24 55 -31 110 -34 98 -7 149 9 203 66 123 126 74 326 -91 375 -67 20 -101 20
-166 -3z"/>
<path d="M1710 1550 c-109 -37 -183 -154 -165 -262 21 -126 111 -202 240 -203
91 0 155 30 203 99 70 96 50 243 -41 322 -40 33 -118 64 -161 64 -12 -1 -46
-9 -76 -20z m154 -77 c19 -9 38 -23 40 -30 3 -8 2 -11 -4 -8 -5 3 -14 -4 -20
-16 -7 -11 -14 -18 -17 -15 -9 9 -43 86 -38 86 2 0 20 -7 39 -17z"/>
<path d="M784 1531 c-139 -35 -212 -194 -150 -326 67 -146 248 -181 371 -73
97 85 97 224 1 326 -58 62 -148 92 -222 73z"/>
<path d="M1285 1316 c-29 -12 -85 -69 -85 -85 0 -3 -17 -5 -38 -3 -48 5 -67
-14 -52 -52 12 -32 34 -42 63 -29 19 9 28 4 69 -38 32 -34 55 -49 73 -49 38 0
93 40 113 82 16 35 19 37 55 31 30 -4 41 -2 52 13 19 25 19 39 -1 58 -18 19
-65 21 -82 4 -10 -10 -18 -6 -39 21 -15 18 -41 40 -59 47 -39 16 -32 16 -69 0z"/>
<path d="M951 1000 c-89 -32 -145 -101 -157 -193 -12 -85 53 -184 150 -228
122 -55 283 20 315 147 15 57 14 81 -4 142 -37 125 -167 181 -304 132z"/>
<path d="M1494 1002 c-72 -34 -134 -136 -134 -222 0 -24 13 -62 33 -101 26
-51 41 -67 85 -92 44 -24 64 -29 117 -29 146 0 255 102 255 240 0 68 -61 157
-134 194 -59 30 -168 35 -222 10z"/>
<path d="M1068 523 c7 -3 16 -2 19 1 4 3 -2 6 -13 5 -11 0 -14 -3 -6 -6z"/>
<path d="M3148 553 c6 -2 18 -2 25 0 6 3 1 5 -13 5 -14 0 -19 -2 -12 -5z"/>
<path d="M3380 480 c-8 -5 -10 -10 -5 -10 6 0 17 5 25 10 8 5 11 10 5 10 -5 0
-17 -5 -25 -10z"/>
</g>
</svg>
